<svg width="178" height="45" viewBox="0 0 178 45" fill="none" xmlns="http://www.w3.org/2000/svg">
<path d="M7.12875 8.67202C6.37889 9.16568 5.76369 9.83388 5.33741 10.6177C4.7634 11.8008 4.45839 13.0935 4.44379 14.4052C4.4292 15.7169 4.70535 17.0159 5.25288 18.2112C5.69227 19.1619 6.81891 21.0407 6.81891 21.0407L19.7133 0L7.12875 8.67202Z" fill="url(#paint0_linear_25_486)"/>
<path d="M1.83329 30.8778C0.861783 29.1032 0.285699 27.1443 0.143611 25.1322C-0.0314052 23.3897 -0.0464882 21.6352 0.0985465 19.8901C0.350522 18.2391 0.857779 16.6361 1.6026 15.1372C1.6026 15.1372 1.97438 14.4201 2.16591 14.0698C2.06309 14.7386 2.06309 15.4189 2.16591 16.0877C2.39819 17.5647 2.89813 18.9883 3.64181 20.2903C10.9874 32.6146 19.6963 45 19.6963 45L5.77677 35.4219C4.1493 34.2016 2.8048 32.6525 1.83329 30.8778Z" fill="url(#paint1_linear_25_486)"/>
<path d="M34.0665 23.9703C34.0665 23.9703 35.1818 25.8493 35.6326 26.7998L35.6551 26.7943C36.2027 27.9896 36.4788 29.2887 36.4642 30.6004C36.4495 31.912 36.1446 33.2047 35.5706 34.3879C35.1443 35.1717 34.529 35.8398 33.7792 36.3335L21.1948 45L34.0665 23.9703Z" fill="url(#paint2_linear_25_486)"/>
<path d="M39.0522 14.1277C40.0236 15.9023 40.5996 17.8613 40.7417 19.8733L40.7644 19.8678C40.9375 21.6105 40.9507 23.3649 40.8037 25.1099C40.5518 26.7609 40.0445 28.3639 39.2997 29.8628C39.2997 29.8628 38.928 30.5799 38.7364 30.9302C38.8392 30.2614 38.8392 29.5811 38.7364 28.9123C38.5058 27.4357 38.0078 26.0122 37.2662 24.7097C29.9148 12.3854 21.2116 0 21.2116 0L35.1086 9.5837C36.7361 10.8039 38.0806 12.3532 39.0522 14.1277Z" fill="url(#paint3_linear_25_486)"/>
<path d="M51.1073 32.4696H64.2845V28.5683H55.358V23.8811H63.2927V20.1763H55.358V15.6856H64.2845V11.7843H51.1073V32.4696Z" fill="url(#paint4_linear_25_486)"/>
<path d="M67.788 32.4696H72.0104V18.8343L81.1636 32.4696H85.3576V11.7843H81.1636V25.4812L72.0104 11.7843H67.788V32.4696Z" fill="url(#paint5_linear_25_486)"/>
<path d="M89.0856 14.4506C88.4433 15.3862 88.1221 16.4715 88.1221 17.7064C88.1221 19.3717 88.585 20.7189 89.5107 21.748C90.4553 22.7772 91.8438 23.4788 93.6764 23.8531L96.9069 24.5267C97.6626 24.6764 98.201 24.929 98.5222 25.2845C98.8433 25.6213 99.0039 26.1078 99.0039 26.744C99.0039 27.455 98.6827 28.0257 98.0404 28.456C97.3981 28.8677 96.5291 29.0735 95.4333 29.0735C94.3754 29.0735 93.5441 28.8583 92.9396 28.428C92.3539 27.9789 92.0611 27.3614 92.0611 26.5756H87.8104C87.8293 27.8292 88.1504 28.9332 88.7739 29.8875C89.3973 30.823 90.2758 31.5528 91.4093 32.0767C92.5617 32.5819 93.8936 32.8345 95.405 32.8345C96.9919 32.8345 98.371 32.5725 99.5423 32.0486C100.733 31.506 101.649 30.7482 102.291 29.7752C102.933 28.7835 103.255 27.6327 103.255 26.323C103.255 24.7138 102.811 23.4508 101.923 22.5339C101.035 21.6171 99.6746 20.9715 97.842 20.5973L94.6399 19.9237C93.8653 19.7553 93.2891 19.4933 92.9112 19.1378C92.5523 18.7636 92.3728 18.2397 92.3728 17.5661C92.3728 16.8176 92.6656 16.2282 93.2513 15.7978C93.8558 15.3675 94.6587 15.1523 95.66 15.1523C96.5857 15.1523 97.3131 15.3768 97.842 15.8259C98.3899 16.275 98.6733 16.8925 98.6922 17.6783H102.915C102.915 16.3872 102.612 15.2739 102.008 14.3384C101.422 13.4028 100.591 12.6824 99.514 12.1772C98.456 11.6533 97.1903 11.3913 95.7167 11.3913C94.2431 11.3913 92.9301 11.6626 91.7777 12.2053C90.6442 12.7479 89.7468 13.4964 89.0856 14.4506Z" fill="url(#paint6_linear_25_486)"/>
<path fill-rule="evenodd" clip-rule="evenodd" d="M113.347 32.4696H121.31C123.312 32.4696 125.069 32.0393 126.581 31.1785C128.111 30.2991 129.301 29.0829 130.151 27.5298C131.02 25.9768 131.455 24.1899 131.455 22.169C131.455 20.1295 131.011 18.3332 130.123 16.7802C129.235 15.2084 128.017 13.9828 126.467 13.1034C124.918 12.224 123.114 11.7843 121.055 11.7843H113.347V32.4696ZM117.598 15.6856V28.5683H120.885C122.169 28.5683 123.265 28.3157 124.172 27.8105C125.079 27.3053 125.768 26.5756 126.241 25.6213C126.732 24.6483 126.978 23.4975 126.978 22.169C126.978 20.8218 126.722 19.6617 126.212 18.6887C125.702 17.7158 124.975 16.9767 124.03 16.4714C123.086 15.9475 121.962 15.6856 120.658 15.6856H117.598Z" fill="#9B9BA7"/>
<path fill-rule="evenodd" clip-rule="evenodd" d="M134.116 21.6077C133.455 22.7117 133.124 23.9934 133.124 25.4529C133.124 26.9124 133.455 28.1941 134.116 29.298C134.777 30.402 135.684 31.2627 136.836 31.8802C138.008 32.4977 139.34 32.8064 140.832 32.8064C142.325 32.8064 143.647 32.4977 144.799 31.8802C145.952 31.2627 146.859 30.402 147.52 29.298C148.181 28.1941 148.512 26.9124 148.512 25.4529C148.512 23.9934 148.181 22.7117 147.52 21.6077C146.859 20.485 145.952 19.6149 144.799 18.9975C143.647 18.38 142.325 18.0713 140.832 18.0713C139.34 18.0713 138.008 18.38 136.836 18.9975C135.684 19.6149 134.777 20.485 134.116 21.6077ZM137.658 27.4456C137.356 26.8656 137.205 26.192 137.205 25.4248C137.205 24.6764 137.356 24.0215 137.658 23.4601C137.961 22.8988 138.386 22.4591 138.934 22.141C139.481 21.8229 140.114 21.6638 140.832 21.6638C141.55 21.6638 142.173 21.8229 142.702 22.141C143.25 22.4591 143.675 22.8988 143.978 23.4601C144.28 24.0215 144.431 24.6764 144.431 25.4248C144.431 26.192 144.28 26.8656 143.978 27.4456C143.675 28.007 143.25 28.4467 142.702 28.7648C142.173 29.0642 141.55 29.2138 140.832 29.2138C140.114 29.2138 139.481 29.0642 138.934 28.7648C138.386 28.4467 137.961 28.007 137.658 27.4456Z" fill="#9B9BA7"/>
<path d="M150.961 21.6358C150.356 22.7397 150.054 24.0027 150.054 25.4248C150.054 26.9217 150.347 28.2221 150.932 29.3261C151.537 30.4301 152.378 31.2908 153.455 31.9083C154.55 32.5258 155.835 32.8345 157.308 32.8345C158.593 32.8345 159.736 32.5912 160.737 32.1047C161.758 31.6183 162.579 30.9446 163.203 30.0839C163.845 29.2045 164.223 28.1941 164.336 27.0527H160.256C160.105 27.7824 159.774 28.3344 159.264 28.7086C158.773 29.0642 158.121 29.2419 157.308 29.2419C156.647 29.2419 156.071 29.0922 155.58 28.7928C155.108 28.4935 154.739 28.0631 154.475 27.5018C154.229 26.9217 154.106 26.2294 154.106 25.4248C154.106 24.6576 154.239 23.9934 154.503 23.4321C154.786 22.8707 155.174 22.431 155.665 22.1129C156.156 21.7948 156.723 21.6358 157.365 21.6358C158.159 21.6358 158.792 21.8229 159.264 22.1971C159.755 22.5526 160.086 23.0953 160.256 23.825H164.308C164.157 22.0474 163.439 20.6441 162.154 19.6149C160.889 18.5858 159.245 18.0713 157.223 18.0713C155.825 18.0713 154.588 18.3894 153.511 19.0255C152.434 19.643 151.584 20.5131 150.961 21.6358Z" fill="#9B9BA7"/>
<path d="M169.282 28.1192H165.428C165.428 29.5226 165.966 30.664 167.043 31.5434C168.12 32.4041 169.565 32.8345 171.379 32.8345C172.588 32.8345 173.655 32.6474 174.581 32.2731C175.507 31.8989 176.225 31.3563 176.735 30.6453C177.245 29.9155 177.5 29.0735 177.5 28.1192C177.5 27.0153 177.198 26.1733 176.593 25.5932C175.989 24.9944 175.101 24.5641 173.929 24.3021L171.322 23.7408C170.245 23.4975 169.707 23.0485 169.707 22.3936C169.707 21.9632 169.868 21.6264 170.189 21.3832C170.51 21.1212 170.944 20.9902 171.492 20.9902C172.078 20.9902 172.531 21.1493 172.853 21.4674C173.174 21.7667 173.334 22.1784 173.334 22.7023H177.16C177.16 21.7667 176.924 20.9528 176.451 20.2605C175.998 19.5682 175.356 19.0349 174.525 18.6607C173.712 18.2677 172.768 18.0713 171.691 18.0713C170.576 18.0713 169.584 18.249 168.715 18.6045C167.846 18.9601 167.157 19.4746 166.647 20.1482C166.136 20.8218 165.881 21.6264 165.881 22.562C165.881 23.7595 166.193 24.6764 166.817 25.3125C167.459 25.93 168.432 26.3791 169.735 26.6598L172.286 27.2211C172.853 27.3521 173.23 27.5298 173.419 27.7544C173.608 27.9789 173.703 28.2128 173.703 28.456C173.703 28.8677 173.523 29.2045 173.164 29.4665C172.805 29.7097 172.257 29.8313 171.521 29.8313C170.822 29.8313 170.274 29.6816 169.877 29.3823C169.499 29.0642 169.301 28.6432 169.282 28.1192Z" fill="#9B9BA7"/>
<defs>
<linearGradient id="paint0_linear_25_486" x1="118.23" y1="50.3333" x2="103.86" y2="-49.4306" gradientUnits="userSpaceOnUse">
<stop stop-color="#44BCF0"/>
<stop offset="0.378795" stop-color="#7298F8"/>
<stop offset="1" stop-color="#A099FF"/>
</linearGradient>
<linearGradient id="paint1_linear_25_486" x1="118.23" y1="50.3333" x2="103.86" y2="-49.4306" gradientUnits="userSpaceOnUse">
<stop stop-color="#44BCF0"/>
<stop offset="0.378795" stop-color="#7298F8"/>
<stop offset="1" stop-color="#A099FF"/>
</linearGradient>
<linearGradient id="paint2_linear_25_486" x1="118.23" y1="50.3333" x2="103.86" y2="-49.4306" gradientUnits="userSpaceOnUse">
<stop stop-color="#44BCF0"/>
<stop offset="0.378795" stop-color="#7298F8"/>
<stop offset="1" stop-color="#A099FF"/>
</linearGradient>
<linearGradient id="paint3_linear_25_486" x1="118.23" y1="50.3333" x2="103.86" y2="-49.4306" gradientUnits="userSpaceOnUse">
<stop stop-color="#44BCF0"/>
<stop offset="0.378795" stop-color="#7298F8"/>
<stop offset="1" stop-color="#A099FF"/>
</linearGradient>
<linearGradient id="paint4_linear_25_486" x1="118.23" y1="50.3333" x2="103.86" y2="-49.4306" gradientUnits="userSpaceOnUse">
<stop stop-color="#44BCF0"/>
<stop offset="0.378795" stop-color="#7298F8"/>
<stop offset="1" stop-color="#A099FF"/>
</linearGradient>
<linearGradient id="paint5_linear_25_486" x1="118.23" y1="50.3333" x2="103.86" y2="-49.4306" gradientUnits="userSpaceOnUse">
<stop stop-color="#44BCF0"/>
<stop offset="0.378795" stop-color="#7298F8"/>
<stop offset="1" stop-color="#A099FF"/>
</linearGradient>
<linearGradient id="paint6_linear_25_486" x1="118.23" y1="50.3333" x2="103.86" y2="-49.4306" gradientUnits="userSpaceOnUse">
<stop stop-color="#44BCF0"/>
<stop offset="0.378795" stop-color="#7298F8"/>
<stop offset="1" stop-color="#A099FF"/>
</linearGradient>
</defs>
</svg>
