<svg width="630" height="320" viewBox="0 0 630 320" fill="none" xmlns="http://www.w3.org/2000/svg">
<rect width="630" height="320" fill="black"/>
<rect width="630" height="320" fill="#5298FF"/>
<rect width="630" height="320" fill="url(#paint0_linear_1_2)" style="mix-blend-mode:color"/>
<path d="M149.216 206L136.84 164.728H145.632L151.4 183.992C151.773 185.187 152.109 186.456 152.408 187.8C152.744 189.107 153.08 190.731 153.416 192.672C153.752 190.693 154.069 189.069 154.368 187.8C154.704 186.493 155.059 185.224 155.432 183.992L161.032 164.728H170.384L175.76 183.992C176.096 185.224 176.413 186.512 176.712 187.856C177.048 189.2 177.403 190.805 177.776 192.672C178.187 190.656 178.541 189.013 178.84 187.744C179.176 186.437 179.531 185.224 179.904 184.104L185.784 164.728H194.352L181.808 206H173.576L165.624 177.888L157.448 206H149.216ZM205.676 206.728C202.913 206.728 200.449 206.093 198.284 204.824C196.118 203.555 194.42 201.819 193.188 199.616C191.956 197.413 191.34 194.875 191.34 192C191.34 189.125 191.937 186.587 193.132 184.384C194.326 182.144 195.988 180.408 198.116 179.176C200.281 177.907 202.745 177.272 205.508 177.272C208.382 177.272 210.865 177.869 212.956 179.064C215.046 180.259 216.652 181.939 217.772 184.104C218.929 186.269 219.508 188.864 219.508 191.888V194.016L195.54 194.128L195.652 189.144H211.556C211.556 187.501 211.014 186.195 209.932 185.224C208.849 184.253 207.393 183.768 205.564 183.768C204.033 183.768 202.782 184.067 201.812 184.664C200.841 185.261 200.113 186.176 199.628 187.408C199.142 188.64 198.9 190.189 198.9 192.056C198.9 194.781 199.46 196.835 200.58 198.216C201.737 199.56 203.492 200.232 205.844 200.232C207.561 200.232 208.98 199.933 210.1 199.336C211.22 198.701 211.948 197.824 212.284 196.704H219.62C219.097 199.765 217.585 202.211 215.084 204.04C212.582 205.832 209.446 206.728 205.676 206.728ZM230.99 206H223.486V163.944H231.494V181.64C232.353 180.259 233.622 179.176 235.302 178.392C237.02 177.608 238.905 177.216 240.958 177.216C243.609 177.216 245.886 177.851 247.79 179.12C249.694 180.389 251.169 182.163 252.214 184.44C253.26 186.68 253.782 189.312 253.782 192.336C253.782 195.173 253.222 197.693 252.102 199.896C250.982 202.061 249.414 203.741 247.398 204.936C245.382 206.131 243.049 206.728 240.398 206.728C238.42 206.728 236.609 206.317 234.966 205.496C233.361 204.637 232.166 203.517 231.382 202.136L230.99 206ZM231.55 191.888C231.55 193.381 231.849 194.707 232.446 195.864C233.044 196.984 233.865 197.861 234.91 198.496C235.993 199.093 237.262 199.392 238.718 199.392C240.174 199.392 241.425 199.075 242.47 198.44C243.516 197.805 244.318 196.928 244.878 195.808C245.438 194.688 245.718 193.381 245.718 191.888C245.718 190.432 245.438 189.144 244.878 188.024C244.318 186.904 243.516 186.027 242.47 185.392C241.425 184.72 240.174 184.384 238.718 184.384C237.262 184.384 235.993 184.701 234.91 185.336C233.865 185.971 233.044 186.848 232.446 187.968C231.849 189.088 231.55 190.395 231.55 191.888Z" fill="white"/>
<g clip-path="url(#clip0_1_2)">
<path d="M143.166 77.0834C143.784 78.3931 145.313 80.9818 145.313 80.9818L162.988 52L145.737 63.9481C144.71 64.6283 143.866 65.5489 143.282 66.6288C142.496 68.2579 142.079 70.0376 142.059 71.8434C142.039 73.6492 142.417 75.4375 143.166 77.0834Z" fill="white"/>
<path d="M136.162 86.6266C136.357 89.3988 137.147 92.0978 138.478 94.5428C139.81 96.9877 141.653 99.1223 143.884 100.803L162.965 114C162.965 114 151.027 96.9356 140.958 79.9555C139.938 78.1616 139.253 76.2002 138.934 74.1653C138.793 73.2438 138.793 72.3065 138.934 71.3851C138.672 71.8676 138.162 72.8556 138.162 72.8556C137.141 74.9209 136.446 77.1295 136.1 79.4041C135.902 81.8085 135.922 84.2258 136.162 86.6266Z" fill="white"/>
<path d="M184.842 88.9166C184.224 87.6069 182.695 85.0182 182.695 85.0182L165.019 114L182.27 102.06C183.298 101.379 184.142 100.459 184.726 99.3789C185.513 97.7487 185.931 95.9677 185.951 94.1605C185.971 92.3532 185.592 90.5635 184.842 88.9166Z" fill="white"/>
<path d="M191.846 79.3734C191.651 76.6012 190.861 73.9022 189.529 71.4572C188.198 69.0123 186.355 66.8777 184.124 65.1965L165.042 52C165.042 52 176.973 69.0644 187.05 86.0445C188.067 87.8389 188.75 89.8003 189.066 91.8347C189.207 92.7562 189.207 93.6935 189.066 94.6149C189.328 94.1324 189.838 93.1444 189.838 93.1444C190.859 91.0791 191.554 88.8705 191.9 86.5959C192.101 84.1917 192.083 81.7744 191.846 79.3734Z" fill="white"/>
<g style="mix-blend-mode:color">
<path d="M143.282 66.6288C143.866 65.5489 144.71 64.6283 145.737 63.9481L162.988 52L145.313 80.9895C145.313 80.9895 143.768 78.4007 143.166 77.091C142.415 75.4442 142.037 73.6544 142.057 71.8472C142.077 70.04 142.495 68.2589 143.282 66.6288ZM136.162 86.6266C136.357 89.3988 137.147 92.0978 138.478 94.5428C139.81 96.9877 141.653 99.1223 143.884 100.803L162.965 114C162.965 114 151.027 96.9356 140.958 79.9555C139.938 78.1616 139.253 76.2002 138.934 74.1653C138.793 73.2438 138.793 72.3065 138.934 71.3851C138.672 71.8676 138.162 72.8556 138.162 72.8556C137.141 74.9209 136.446 77.1295 136.1 79.4041C135.902 81.8085 135.922 84.2258 136.162 86.6266ZM184.811 88.9243C184.193 87.6146 182.664 85.0258 182.664 85.0258L165.019 114L182.27 102.06C183.298 101.379 184.142 100.459 184.726 99.3789C185.513 97.7487 185.931 95.9677 185.951 94.1605C185.971 92.3532 185.592 90.5635 184.842 88.9166L184.811 88.9243ZM191.815 79.3811C191.62 76.6089 190.83 73.9099 189.498 71.4649C188.167 69.0199 186.324 66.8854 184.093 65.2042L165.042 52C165.042 52 176.973 69.0644 187.05 86.0445C188.067 87.8389 188.75 89.8003 189.066 91.8347C189.207 92.7562 189.207 93.6935 189.066 94.6149C189.328 94.1324 189.838 93.1444 189.838 93.1444C190.859 91.0791 191.554 88.8705 191.9 86.5959C192.101 84.1917 192.083 81.7744 191.846 79.3734L191.815 79.3811Z" fill="white"/>
</g>
</g>
<path opacity="0.5" d="M156.104 263H140.368V221.728H155.6C159.669 221.728 163.235 222.605 166.296 224.36C169.357 226.115 171.765 228.56 173.52 231.696C175.275 234.795 176.152 238.379 176.152 242.448C176.152 246.48 175.293 250.045 173.576 253.144C171.896 256.243 169.544 258.669 166.52 260.424C163.533 262.141 160.061 263 156.104 263ZM148.768 225.592V259.248L144.792 255.216H155.264C157.803 255.216 159.968 254.712 161.76 253.704C163.552 252.696 164.915 251.24 165.848 249.336C166.819 247.395 167.304 245.099 167.304 242.448C167.304 239.76 166.8 237.445 165.792 235.504C164.784 233.563 163.347 232.088 161.48 231.08C159.613 230.035 157.392 229.512 154.816 229.512H144.792L148.768 225.592ZM178.707 249C178.707 246.088 179.36 243.531 180.667 241.328C181.973 239.088 183.765 237.352 186.043 236.12C188.357 234.888 190.989 234.272 193.939 234.272C196.888 234.272 199.501 234.888 201.779 236.12C204.056 237.352 205.848 239.088 207.155 241.328C208.461 243.531 209.115 246.088 209.115 249C209.115 251.912 208.461 254.469 207.155 256.672C205.848 258.875 204.056 260.592 201.779 261.824C199.501 263.056 196.888 263.672 193.939 263.672C190.989 263.672 188.357 263.056 186.043 261.824C183.765 260.592 181.973 258.875 180.667 256.672C179.36 254.469 178.707 251.912 178.707 249ZM186.771 248.944C186.771 250.475 187.069 251.819 187.667 252.976C188.264 254.096 189.104 254.973 190.187 255.608C191.269 256.205 192.52 256.504 193.939 256.504C195.357 256.504 196.589 256.205 197.635 255.608C198.717 254.973 199.557 254.096 200.155 252.976C200.752 251.819 201.051 250.475 201.051 248.944C201.051 247.451 200.752 246.144 200.155 245.024C199.557 243.904 198.717 243.027 197.635 242.392C196.589 241.757 195.357 241.44 193.939 241.44C192.52 241.44 191.269 241.757 190.187 242.392C189.104 243.027 188.264 243.904 187.667 245.024C187.069 246.144 186.771 247.451 186.771 248.944ZM211.418 248.944C211.418 246.107 212.016 243.587 213.21 241.384C214.442 239.144 216.122 237.408 218.25 236.176C220.378 234.907 222.824 234.272 225.586 234.272C229.581 234.272 232.829 235.299 235.33 237.352C237.869 239.405 239.288 242.205 239.586 245.752H231.578C231.242 244.296 230.589 243.213 229.618 242.504C228.685 241.757 227.434 241.384 225.866 241.384C224.597 241.384 223.477 241.701 222.506 242.336C221.536 242.971 220.77 243.848 220.21 244.968C219.688 246.088 219.426 247.413 219.426 248.944C219.426 250.549 219.669 251.931 220.154 253.088C220.677 254.208 221.405 255.067 222.338 255.664C223.309 256.261 224.448 256.56 225.754 256.56C227.36 256.56 228.648 256.205 229.618 255.496C230.626 254.749 231.28 253.648 231.578 252.192H239.642C239.418 254.469 238.672 256.485 237.402 258.24C236.17 259.957 234.546 261.301 232.53 262.272C230.552 263.243 228.293 263.728 225.754 263.728C222.842 263.728 220.304 263.112 218.138 261.88C216.01 260.648 214.349 258.931 213.154 256.728C211.997 254.525 211.418 251.931 211.418 248.944ZM241.056 254.32H248.672C248.709 255.365 249.101 256.205 249.848 256.84C250.632 257.437 251.714 257.736 253.096 257.736C254.552 257.736 255.634 257.493 256.344 257.008C257.053 256.485 257.408 255.813 257.408 254.992C257.408 254.507 257.221 254.04 256.848 253.592C256.474 253.144 255.728 252.789 254.608 252.528L249.568 251.408C246.992 250.848 245.069 249.952 243.8 248.72C242.568 247.451 241.952 245.621 241.952 243.232C241.952 241.365 242.456 239.76 243.464 238.416C244.472 237.072 245.834 236.045 247.552 235.336C249.269 234.627 251.229 234.272 253.432 234.272C255.56 234.272 257.426 234.664 259.032 235.448C260.674 236.195 261.944 237.259 262.84 238.64C263.773 240.021 264.24 241.645 264.24 243.512H256.68C256.68 242.467 256.362 241.645 255.728 241.048C255.093 240.413 254.197 240.096 253.04 240.096C251.957 240.096 251.098 240.357 250.464 240.88C249.829 241.365 249.512 242.037 249.512 242.896C249.512 244.203 250.576 245.099 252.704 245.584L257.856 246.704C260.17 247.227 261.925 248.085 263.12 249.28C264.314 250.437 264.912 252.117 264.912 254.32C264.912 256.224 264.408 257.904 263.4 259.36C262.392 260.779 260.973 261.861 259.144 262.608C257.314 263.355 255.205 263.728 252.816 263.728C249.232 263.728 246.376 262.869 244.248 261.152C242.12 259.397 241.056 257.12 241.056 254.32ZM294.685 263L279.173 221.728H288.133L296.365 243.624C296.85 244.856 297.298 246.144 297.709 247.488C298.119 248.832 298.549 250.381 298.997 252.136C299.482 250.232 299.949 248.627 300.397 247.32C300.845 246.013 301.274 244.781 301.685 243.624L309.805 221.728H318.541L303.309 263H294.685ZM349.53 262.888L320.41 263V256.728L333.962 245.416C335.156 244.408 336.164 243.475 336.986 242.616C337.844 241.757 338.535 240.936 339.058 240.152C339.618 239.331 340.01 238.528 340.234 237.744C340.495 236.96 340.626 236.101 340.626 235.168C340.626 233.003 340.084 231.341 339.002 230.184C337.956 229.027 336.444 228.448 334.466 228.448C332.412 228.448 330.807 229.12 329.65 230.464C328.53 231.808 327.97 233.693 327.97 236.12H319.57C319.607 233.059 320.242 230.408 321.474 228.168C322.706 225.891 324.423 224.117 326.626 222.848C328.866 221.579 331.479 220.944 334.466 220.944C337.527 220.944 340.159 221.504 342.362 222.624C344.564 223.707 346.263 225.275 347.458 227.328C348.652 229.344 349.25 231.789 349.25 234.664C349.25 236.083 349.044 237.445 348.634 238.752C348.223 240.021 347.626 241.272 346.842 242.504C346.095 243.699 345.18 244.875 344.098 246.032C343.015 247.189 341.783 248.347 340.402 249.504L330.938 257.456L327.858 255.104H349.53V262.888Z" fill="white"/>
<defs>
<linearGradient id="paint0_linear_1_2" x1="450" y1="-330.435" x2="180.849" y2="442.658" gradientUnits="userSpaceOnUse">
<stop stop-color="#513EFF"/>
<stop offset="0.18" stop-color="#5157FF"/>
<stop offset="0.57" stop-color="#5298FF"/>
<stop offset="1" stop-color="#52E5FF"/>
</linearGradient>
<clipPath id="clip0_1_2">
<rect width="56" height="62" fill="white" transform="translate(136 52)"/>
</clipPath>
</defs>
</svg>
